<?xml version="1.0" standalone="no"?>
<!DOCTYPE svg PUBLIC "-//W3C//DTD SVG 20010904//EN"
 "http://www.w3.org/TR/2001/REC-SVG-20010904/DTD/svg10.dtd">
<svg version="1.0" xmlns="http://www.w3.org/2000/svg"
 width="512.000000pt" height="512.000000pt" viewBox="0 0 512.000000 512.000000"
 preserveAspectRatio="xMidYMid meet">

<g transform="translate(0.000000,512.000000) scale(0.100000,-0.100000)"
fill="#ffffff" stroke="none">
<path d="M3880 5105 c-43 -20 -68 -42 -86 -78 -11 -21 -274 -955 -274 -973 0
-2 -71 -4 -158 -4 -171 0 -194 -6 -206 -55 -7 -29 15 -79 39 -89 9 -3 253 -6
541 -6 492 0 524 -1 524 -17 0 -51 -140 -2524 -145 -2556 -13 -91 -90 -187
-184 -231 l-46 -21 -1045 0 c-981 0 -1048 1 -1097 18 -103 36 -185 141 -198
252 -3 28 -28 457 -55 955 -27 498 -52 937 -56 977 l-6 72 49 6 c204 26 300
53 444 126 166 83 317 211 421 359 l42 60 232 0 c219 0 233 1 258 21 34 27 36
77 3 107 -22 21 -32 22 -220 22 l-196 0 20 46 c100 234 103 638 6 767 -43 57
-115 92 -187 91 -50 0 -136 -35 -925 -374 -833 -358 -872 -376 -917 -421 -55
-56 -73 -108 -65 -187 8 -72 66 -161 182 -277 95 -95 184 -160 302 -219 l71
-35 6 -53 c3 -29 42 -748 86 -1598 43 -850 84 -1569 90 -1599 13 -71 48 -123
107 -158 l48 -28 713 -3 712 -3 25 25 c32 32 32 70 0 101 l-24 25 -691 0 -692
0 -29 29 c-21 22 -29 39 -29 66 0 20 -36 716 -80 1547 -44 831 -80 1529 -80
1552 l0 42 84 -14 84 -15 6 -81 c4 -45 29 -488 56 -986 27 -498 54 -936 59
-974 28 -199 184 -355 386 -386 47 -7 400 -10 1090 -8 960 3 1023 4 1075 22
81 27 130 59 194 126 64 67 102 141 117 227 8 45 149 2491 149 2581 0 21 5 22
74 22 53 0 77 -4 86 -15 10 -11 -8 -390 -85 -1841 -53 -1004 -100 -1836 -105
-1849 -5 -13 -18 -29 -29 -34 -13 -8 -232 -11 -676 -11 l-656 0 -24 -25 c-32
-31 -32 -69 0 -100 l24 -25 668 0 c651 0 669 1 713 21 72 32 116 85 133 159 3
14 49 850 103 1858 105 1983 102 1877 47 1943 -55 65 -76 69 -390 69 -156 0
-283 3 -283 8 0 4 45 169 99 367 143 520 135 481 120 533 -18 66 -65 107 -151
133 -97 29 -155 33 -198 14z m128 -151 c32 -9 62 -21 69 -28 9 -8 -16 -110
-105 -436 -133 -480 -111 -437 -229 -439 -41 -1 -63 3 -63 10 0 14 240 890
247 902 6 10 18 9 81 -9z m-1668 -159 c32 -17 44 -47 61 -155 27 -173 -13
-399 -101 -575 -155 -313 -445 -514 -801 -556 -343 -39 -707 120 -912 400 -80
108 -66 137 99 210 159 70 142 70 198 -2 67 -85 136 -141 231 -187 409 -200
890 74 930 530 6 65 -5 182 -20 222 -3 8 14 21 47 35 29 12 91 38 138 57 99
41 93 40 130 21z m-447 -216 c8 -41 2 -157 -8 -167 -2 -2 -65 19 -139 49 -75
29 -135 54 -133 55 9 9 254 112 262 110 5 -2 13 -22 18 -47z m-148 -279 c44
-17 82 -33 84 -35 2 -2 -13 -27 -34 -55 -41 -55 -124 -125 -135 -113 -6 7 -95
213 -116 267 -6 17 16 10 201 -64z m-512 18 c-68 -172 -90 -222 -101 -226 -12
-4 -152 129 -152 144 0 8 241 120 262 123 4 1 0 -18 -9 -41z m238 -165 c36
-84 47 -119 39 -127 -12 -12 -214 -16 -225 -5 -3 4 20 72 52 152 67 168 52
170 134 -20z"/>
<path d="M2836 3689 c-36 -28 -36 -80 0 -108 20 -16 41 -21 84 -21 74 0 104
21 104 75 0 54 -30 75 -104 75 -43 0 -64 -5 -84 -21z"/>
<path d="M3400 3559 c-131 -58 -217 -102 -237 -122 -42 -40 -67 -105 -60 -156
7 -55 175 -428 211 -470 38 -42 81 -61 142 -61 71 0 444 165 496 219 42 44 63
107 53 159 -11 57 -182 433 -211 463 -38 40 -84 59 -141 59 -39 0 -87 -18
-253 -91z m303 -106 c13 -27 54 -116 91 -200 54 -120 66 -155 57 -170 -11 -21
-365 -183 -399 -183 -11 0 -24 6 -29 13 -6 6 -48 97 -94 200 -65 148 -81 192
-72 205 12 20 368 181 400 182 17 0 29 -12 46 -47z"/>
<path d="M2390 3467 c-112 -43 -173 -79 -241 -144 -138 -131 -172 -314 -104
-548 31 -105 54 -147 98 -174 54 -33 106 -36 189 -11 312 95 465 298 428 570
-23 168 -70 277 -136 316 -59 35 -127 32 -234 -9z m174 -145 c27 -52 48 -157
49 -237 1 -104 -26 -168 -96 -231 -82 -74 -261 -149 -293 -123 -21 18 -56 145
-61 229 -13 180 76 294 290 371 73 26 94 24 111 -9z"/>
<path d="M1682 2617 c-31 -33 -29 -80 4 -106 21 -16 41 -21 90 -21 34 0 70 3
79 6 24 10 46 60 39 89 -10 41 -41 55 -119 55 -62 0 -74 -3 -93 -23z"/>
<path d="M3405 2546 c-158 -39 -297 -172 -396 -379 -91 -191 -57 -293 127
-372 139 -59 228 -78 358 -73 103 3 116 6 186 39 133 64 230 172 314 350 53
111 62 151 46 208 -21 78 -93 135 -244 191 -126 48 -285 62 -391 36z m267
-155 c97 -25 203 -73 217 -99 19 -35 -46 -176 -129 -281 -111 -141 -267 -177
-470 -112 -120 39 -174 69 -178 100 -11 73 138 302 235 362 83 52 199 62 325
30z"/>
<path d="M2100 2254 c-157 -70 -299 -137 -316 -150 -47 -34 -77 -104 -72 -162
3 -32 47 -141 132 -332 104 -234 133 -292 165 -322 45 -42 105 -62 159 -52 33
6 469 196 578 252 76 39 123 123 111 199 -7 39 -238 562 -272 614 -14 21 -43
46 -67 58 -82 39 -105 33 -418 -105z m364 -46 c8 -13 67 -140 131 -283 92
-206 114 -264 107 -280 -14 -30 -556 -269 -581 -256 -25 14 -264 549 -257 576
4 16 67 49 273 142 147 66 278 121 290 122 13 1 29 -8 37 -21z"/>
<path d="M3199 1339 c-25 -9 -49 -45 -49 -73 0 -7 9 -25 21 -40 19 -24 26 -26
94 -26 68 0 75 2 94 26 12 15 21 33 21 40 0 26 -23 62 -47 73 -29 13 -98 13
-134 0z"/>
</g>
</svg>
