<?xml version="1.0" standalone="no"?>
<!DOCTYPE svg PUBLIC "-//W3C//DTD SVG 20010904//EN"
 "http://www.w3.org/TR/2001/REC-SVG-20010904/DTD/svg10.dtd">
<svg version="1.0" xmlns="http://www.w3.org/2000/svg"
 width="512.000000pt" height="512.000000pt" viewBox="0 0 512.000000 512.000000"
 preserveAspectRatio="xMidYMid meet">

<g transform="translate(0.000000,512.000000) scale(0.100000,-0.100000)"
fill="#ffffff" stroke="none">
<path d="M2372 4965 c-24 -20 -33 -37 -38 -75 -7 -52 -27 -89 -92 -173 -60
-77 -85 -152 -85 -257 0 -104 25 -177 86 -251 71 -86 87 -119 87 -177 0 -66
-16 -104 -70 -167 -83 -96 -120 -222 -100 -337 15 -80 43 -137 102 -211 50
-62 62 -92 73 -169 9 -66 51 -102 109 -95 28 4 49 15 65 33 21 25 23 35 19
104 -5 92 -34 158 -106 248 -91 113 -91 201 -1 308 84 99 114 188 107 312 -5
92 -39 174 -97 237 -101 110 -103 213 -6 332 65 79 97 151 103 233 4 59 2 69
-19 94 -36 41 -95 46 -137 11z"/>
<path d="M1549 4112 c-26 -23 -32 -37 -39 -95 -9 -71 -20 -95 -74 -155 -78
-87 -117 -219 -96 -331 15 -85 38 -133 104 -219 33 -44 57 -86 61 -107 3 -19
7 -50 10 -69 7 -42 55 -86 93 -86 38 0 90 35 98 66 12 45 -3 147 -29 204 -13
30 -47 83 -75 118 -90 111 -92 199 -6 302 71 85 107 168 112 261 4 76 4 79
-26 109 -41 40 -89 41 -133 2z"/>
<path d="M3141 4126 c-32 -18 -50 -53 -51 -99 0 -53 -21 -97 -80 -169 -71 -88
-93 -151 -93 -263 0 -104 21 -172 78 -245 76 -98 86 -117 95 -181 7 -53 15
-69 40 -91 70 -63 159 -13 160 89 0 82 -34 170 -101 258 -101 134 -104 211
-12 317 68 80 104 162 110 257 6 79 5 80 -25 110 -34 34 -79 40 -121 17z"/>
<path d="M503 2796 c-25 -22 -28 -32 -33 -108 -8 -133 7 -421 29 -573 23 -153
66 -339 105 -454 l26 -74 -23 -16 c-72 -50 -150 -139 -190 -219 -38 -77 -42
-92 -45 -177 -7 -145 33 -254 133 -364 l37 -41 -240 0 c-235 0 -241 -1 -267
-23 -18 -15 -28 -36 -32 -64 -5 -37 -2 -45 23 -70 18 -18 213 -114 524 -258
l495 -230 1350 0 1350 0 505 235 c490 228 506 236 523 272 16 32 17 44 7 72
-22 69 8 66 -675 66 -350 0 -615 4 -615 9 0 22 100 126 195 205 123 101 224
217 295 336 l51 87 197 6 c230 8 289 19 422 84 83 40 107 58 195 147 113 114
169 203 217 343 113 326 53 617 -145 704 -43 19 -69 23 -152 23 -163 -1 -251
-46 -353 -183 -36 -48 -73 -85 -100 -99 l-42 -23 0 176 0 177 -29 29 -29 29
-1276 0 c-932 0 -1282 -3 -1300 -11 -23 -11 -56 -62 -56 -89 0 -6 7 -24 15
-40 33 -64 -44 -60 1275 -60 l1200 0 0 -122 c0 -68 -7 -184 -15 -258 -59 -508
-219 -872 -480 -1086 -156 -129 -245 -229 -292 -331 l-24 -53 -796 0 -795 0
37 41 c184 204 181 480 -8 677 -184 193 -525 277 -816 204 l-71 -19 -30 96
c-65 206 -110 503 -110 729 l0 122 124 0 c67 0 137 5 154 11 66 23 84 109 33
160 l-29 29 -211 0 c-207 0 -210 0 -238 -24z m4347 -296 c58 -31 84 -188 56
-327 -54 -265 -218 -466 -435 -533 -63 -20 -302 -39 -334 -27 -13 5 -10 22 19
113 31 99 74 295 92 423 l7 54 52 13 c107 28 189 88 264 194 38 55 75 84 127
101 34 11 123 4 152 -11z m-3555 -1006 c75 -20 178 -73 230 -120 22 -20 33
-33 24 -31 -47 15 -154 18 -221 7 -95 -16 -168 -46 -263 -109 -43 -28 -103
-59 -133 -67 -68 -20 -199 -15 -290 11 -62 18 -64 20 -58 47 8 40 58 110 109
151 76 62 194 112 312 131 54 8 229 -3 290 -20z m267 -364 c86 -33 85 -30 54
-94 -55 -113 -186 -205 -341 -241 -157 -37 -365 -13 -496 56 -59 32 -157 114
-147 124 2 3 31 0 64 -6 74 -14 243 -6 309 15 47 14 81 33 210 114 102 64 232
76 347 32z m2628 -574 c-14 -8 -133 -64 -266 -125 l-240 -111 -1290 0 -1290 0
-259 120 c-142 66 -260 122 -263 125 -3 3 813 5 1814 5 1526 -1 1815 -3 1794
-14z"/>
<path d="M1257 2809 c-22 -13 -47 -61 -47 -93 0 -14 13 -40 29 -58 24 -27 36
-33 71 -33 35 0 47 6 71 33 16 18 29 44 29 58 0 33 -25 81 -49 94 -25 13 -81
12 -104 -1z"/>
</g>
</svg>
