<?xml version="1.0" standalone="no"?>
<!DOCTYPE svg PUBLIC "-//W3C//DTD SVG 20010904//EN"
 "http://www.w3.org/TR/2001/REC-SVG-20010904/DTD/svg10.dtd">
<svg version="1.0" xmlns="http://www.w3.org/2000/svg"
 width="512.000000pt" height="512.000000pt" viewBox="0 0 512.000000 512.000000"
 preserveAspectRatio="xMidYMid meet">

<g transform="translate(0.000000,512.000000) scale(0.100000,-0.100000)"
fill="#c7a86a" stroke="none">
<path d="M2350 5113 c-14 -2 -67 -13 -117 -24 -73 -16 -97 -26 -113 -46 -33
-42 -25 -85 21 -109 26 -13 36 -12 111 8 116 32 335 31 453 -1 380 -102 655
-421 694 -805 34 -336 -120 -673 -392 -858 -146 -99 -294 -149 -498 -168 -144
-13 -309 -53 -434 -105 -154 -63 -276 -144 -515 -341 -124 -103 -245 -196
-270 -207 -66 -32 -178 -30 -244 2 -60 30 -117 85 -148 143 -32 62 -33 194 -1
258 13 25 96 133 184 240 89 107 189 236 222 285 140 213 215 432 247 725 28
257 117 440 299 612 101 95 110 120 66 163 -45 46 -73 36 -178 -65 -201 -192
-307 -411 -337 -700 -22 -203 -65 -360 -141 -512 -61 -121 -117 -200 -299
-418 -200 -241 -230 -296 -238 -435 l-5 -93 -66 -66 -66 -66 -60 24 c-77 31
-146 39 -212 27 -121 -24 -222 -100 -275 -209 -30 -61 -33 -74 -32 -162 0 -80
4 -104 26 -151 42 -91 122 -168 209 -199 31 -11 40 -22 60 -69 27 -67 114
-157 179 -188 143 -66 299 -45 411 54 61 55 90 99 114 172 23 72 17 195 -15
269 l-23 53 67 68 c66 66 69 68 109 64 59 -7 151 12 222 46 38 18 143 97 285
214 123 102 259 207 301 232 170 103 361 166 560 184 147 14 212 26 307 58
342 114 612 402 701 748 160 616 -239 1231 -868 1339 -86 14 -237 19 -301 9z
m-1495 -2699 c22 -22 51 -48 65 -57 l24 -17 -56 -57 c-88 -89 -95 -125 -48
-225 34 -72 40 -146 14 -206 -43 -103 -162 -160 -267 -128 -75 23 -115 59
-152 140 -38 82 -64 109 -125 131 -65 23 -109 62 -136 119 -55 118 -8 242 116
306 42 22 139 18 190 -9 106 -56 148 -49 235 39 l60 61 19 -28 c11 -16 38 -46
61 -69z"/>
<path d="M2210 4710 c-40 -40 -16 -112 42 -126 22 -5 34 0 59 25 25 26 30 37
24 59 -3 15 -14 35 -22 45 -22 23 -78 22 -103 -3z"/>
<path d="M2580 4710 c-40 -40 -16 -112 42 -126 22 -5 33 0 58 24 35 36 38 60
9 96 -26 33 -79 36 -109 6z"/>
<path d="M2423 4440 c-45 -18 -57 -81 -23 -118 30 -32 82 -30 109 4 12 15 21
33 21 40 0 26 -23 62 -47 73 -28 13 -30 13 -60 1z"/>
<path d="M4403 3550 c-111 -23 -217 -105 -269 -207 -27 -53 -29 -67 -29 -163
0 -93 3 -111 26 -157 l26 -52 -71 -69 c-68 -66 -73 -69 -112 -65 -58 7 -149
-13 -219 -46 -38 -18 -143 -97 -285 -214 -123 -102 -259 -207 -301 -232 -170
-103 -358 -165 -559 -184 -63 -6 -141 -16 -173 -22 -126 -22 -316 -100 -337
-138 -26 -50 4 -111 56 -111 14 0 54 13 89 29 95 44 185 70 288 81 286 33 431
70 597 153 134 67 209 120 440 310 118 98 235 187 260 200 65 32 176 31 244
-2 60 -30 117 -85 148 -143 32 -62 33 -194 1 -258 -13 -25 -96 -133 -185 -240
-88 -107 -190 -239 -225 -292 -137 -208 -213 -432 -243 -715 -25 -233 -102
-408 -249 -565 -90 -96 -171 -155 -285 -209 -142 -66 -218 -82 -391 -82 -122
0 -164 4 -228 21 -262 72 -486 251 -602 482 -71 142 -112 341 -100 484 16 178
83 358 183 489 28 37 56 76 62 87 23 44 -17 100 -71 100 -34 0 -75 -41 -144
-145 -356 -532 -166 -1259 405 -1554 416 -215 925 -135 1253 196 188 190 288
406 317 683 22 203 65 360 141 512 61 121 117 200 299 418 200 241 230 296
238 435 l5 93 66 66 66 66 60 -24 c77 -31 146 -39 212 -27 326 63 423 472 159
672 -26 20 -65 42 -86 49 -32 10 -41 20 -59 65 -66 158 -253 259 -418 225z
m131 -154 c74 -22 114 -60 151 -140 38 -82 64 -109 125 -131 65 -23 109 -62
136 -119 55 -118 8 -242 -116 -306 -44 -23 -139 -17 -195 12 -103 52 -142 45
-230 -42 l-61 -61 -32 45 c-26 36 -83 89 -131 123 -3 2 21 29 52 61 87 88 94
124 47 224 -72 151 -7 302 145 339 46 11 58 10 109 -5z"/>
<path d="M2611 794 c-24 -30 -26 -43 -10 -78 33 -72 139 -45 139 36 0 64 -89
92 -129 42z"/>
<path d="M2440 512 c-35 -36 -38 -60 -9 -96 15 -19 30 -26 55 -26 90 0 101
125 12 146 -22 5 -33 0 -58 -24z"/>
<path d="M2809 511 c-25 -26 -30 -37 -24 -59 10 -41 34 -62 72 -62 90 0 99
125 11 146 -22 5 -34 0 -59 -25z"/>
</g>
</svg>
