<?xml version="1.0" standalone="no"?>
<!DOCTYPE svg PUBLIC "-//W3C//DTD SVG 20010904//EN"
 "http://www.w3.org/TR/2001/REC-SVG-20010904/DTD/svg10.dtd">
<svg version="1.0" xmlns="http://www.w3.org/2000/svg"
 width="512.000000pt" height="512.000000pt" viewBox="0 0 512.000000 512.000000"
 preserveAspectRatio="xMidYMid meet">

<g transform="translate(0.000000,512.000000) scale(0.100000,-0.100000)"
fill="#c7a86a" stroke="none">
<path d="M583 4916 c-265 -64 -437 -334 -382 -598 29 -138 147 -292 270 -352
36 -17 61 -37 69 -54 43 -96 174 -206 289 -244 55 -18 97 -22 259 -26 l193 -4
31 -62 c48 -95 129 -215 192 -283 l57 -62 -40 -51 c-92 -117 -149 -281 -158
-461 -6 -103 -5 -106 18 -122 13 -10 35 -17 50 -17 45 0 61 30 70 134 14 163
60 298 132 380 l33 40 65 -46 c35 -25 95 -62 132 -83 38 -20 66 -42 63 -49
-75 -173 -96 -258 -99 -407 -2 -89 0 -100 20 -120 26 -27 69 -28 94 -2 16 16
21 38 25 119 6 127 26 221 63 301 33 70 36 71 114 48 29 -8 96 -22 151 -30 54
-8 100 -16 102 -18 2 -2 -3 -35 -11 -73 -26 -122 -15 -372 18 -413 21 -25 56
-32 86 -16 35 17 43 45 31 105 -15 75 -10 258 8 330 l17 65 180 3 c222 3 300
-10 435 -75 82 -39 107 -58 185 -137 102 -103 152 -186 184 -306 29 -110 34
-178 21 -287 -33 -271 -175 -503 -397 -647 -214 -138 -425 -172 -688 -112
-162 37 -359 104 -511 173 -153 69 -168 68 -199 -17 -15 -44 -19 -82 -20 -190
0 -135 0 -135 36 -211 25 -52 55 -94 94 -133 l57 -56 -13 -52 c-22 -84 -17
-250 9 -333 25 -82 82 -176 136 -223 80 -70 116 -68 168 10 94 142 246 310
440 489 l107 99 108 0 c516 0 907 123 1281 403 491 367 796 1003 769 1607 -29
658 -467 1180 -1126 1343 -85 21 -101 21 -1333 24 -1242 4 -1247 4 -1268 -17
-16 -16 -20 -33 -20 -85 l0 -65 -264 0 c-319 0 -300 -7 -294 119 3 68 10 97
32 141 43 87 117 155 206 191 29 12 203 15 1027 19 1081 5 1013 1 1028 60 4
18 0 34 -15 53 l-21 27 -982 0 c-1063 0 -1027 1 -1143 -55 -106 -52 -212 -174
-250 -287 -9 -27 -19 -82 -23 -121 l-7 -72 -39 40 c-91 94 -125 236 -86 361
38 123 115 202 239 243 60 21 77 21 1030 21 l969 0 21 23 c28 30 28 68 -1 95
l-23 22 -975 -1 c-749 -1 -986 -4 -1026 -13z m2412 -879 c84 -145 92 -450 18
-707 -32 -113 -92 -234 -143 -293 l-42 -47 -211 0 c-236 0 -354 14 -487 56
-432 136 -755 526 -806 973 l-7 61 826 0 826 0 26 -43z m708 28 c110 -17 273
-68 369 -116 178 -89 360 -243 473 -399 l58 -81 -17 -37 c-38 -79 -151 -237
-233 -323 -186 -195 -439 -350 -718 -441 l-95 -30 -66 71 c-37 40 -95 92 -129
117 -76 53 -213 119 -284 136 -28 6 -51 16 -51 21 0 5 9 22 21 38 32 45 85
166 113 259 78 261 81 580 5 757 l-18 43 237 0 c158 0 270 -5 335 -15z m-2494
-202 c7 -27 14 -56 18 -67 5 -18 -2 -18 -158 -14 -159 3 -166 5 -229 35 -36
17 -81 45 -100 61 l-35 31 246 1 247 0 11 -47z m3500 -617 c132 -352 97 -817
-91 -1216 -72 -153 -167 -302 -267 -416 l-33 -37 -86 6 c-200 15 -392 93 -519
211 l-56 52 16 84 c36 193 29 328 -24 480 -16 47 -31 89 -32 93 -1 5 41 23 93
41 391 132 740 395 926 697 20 32 40 59 45 59 4 0 17 -24 28 -54z m-1016
-1614 c37 -27 106 -69 152 -92 86 -41 250 -90 309 -90 l31 -1 -45 -40 c-112
-102 -313 -223 -478 -289 -244 -98 -414 -129 -743 -137 -130 -3 -248 -3 -262
1 -55 13 -75 68 -39 104 15 15 41 20 115 26 342 24 637 204 818 501 35 57 56
82 63 76 6 -5 41 -31 79 -59z m-1707 -342 c116 -48 311 -111 416 -135 l76 -17
-10 -29 c-6 -17 -8 -54 -6 -84 5 -61 33 -110 84 -144 l32 -22 -147 -147 c-127
-126 -258 -275 -291 -331 -9 -14 -12 -14 -26 4 -31 38 -65 125 -76 191 -12 71
0 188 27 265 21 59 11 84 -52 126 -100 66 -143 151 -143 283 0 47 4 80 10 80
6 0 53 -18 106 -40z"/>
<path d="M2065 3956 c-62 -28 -115 -110 -115 -178 0 -41 30 -106 61 -135 97
-89 245 -58 300 62 43 93 4 196 -93 246 -43 22 -110 24 -153 5z m109 -142 c9
-8 16 -23 16 -31 0 -21 -29 -53 -48 -53 -22 0 -52 30 -52 51 0 23 26 49 50 49
10 0 26 -7 34 -16z"/>
<path d="M3777 3913 c-22 -25 -22 -76 1 -95 9 -9 44 -25 77 -37 32 -12 90 -38
128 -57 37 -19 81 -34 96 -34 36 0 61 28 61 68 0 41 -44 74 -167 127 -108 47
-170 56 -196 28z"/>
</g>
</svg>
